<svg id="Line" height="512" viewBox="0 0 64 64" width="512" xmlns="http://www.w3.org/2000/svg"><path d="m37.131 34.847a1 1 0 0 0 .91 0c.467-.239 11.459-5.947 11.459-14.453a7.4 7.4 0 0 0 -11.914-5.853 7.4 7.4 0 0 0 -11.915 5.853c0 8.506 10.993 14.214 11.46 14.453z" fill="#c4a2fc"/><path d="m59.5 36h-2a2.981 2.981 0 0 0 -2.22 1h-12.641a2.988 2.988 0 0 0 -2.01.77c-6.766 6.148-6.618 5.829-7.221 6.66a4.958 4.958 0 0 0 7.531 6.4l.537-.537a1 1 0 0 1 .707-.293 1 1 0 0 1 .708 1.708l-.532.532a6.957 6.957 0 0 1 -10.659-8.85l-10.93-6.61a5.438 5.438 0 0 0 -7.261 1.58 5.681 5.681 0 0 0 1.71 8.08l27.04 16.14a2.96 2.96 0 0 0 3.43-.28l9.242-7.773a2.991 2.991 0 0 0 2.569 1.473h2a3 3 0 0 0 3-3v-14a3 3 0 0 0 -3-3zm1 17a1 1 0 0 1 -1 1h-2a1 1 0 0 1 -1-1v-14a1 1 0 0 1 1-1h2a1 1 0 0 1 1 1z" fill="#c4a2fc"/><path d="m46.5 15.016h-8.515c2.772-4.355 3.285-9.435 1.039-12.185-3.012-3.688-8.523-1.3-11.818 2.73a16.908 16.908 0 0 0 -2.966 5.38 13.821 13.821 0 0 0 -1.284-1.9c-1.875-2.306-4.267-3.683-6.4-3.685h-.005a4.093 4.093 0 0 0 -3.279 1.515c-1.515 1.855-1.516 5.046-.123 8.144h-8.649a3 3 0 0 0 -3 3v4a3 3 0 0 0 3 3h1v19a3 3 0 0 0 3 3h34a3 3 0 0 0 3-3v-19h1a3 3 0 0 0 3-3v-4a3 3 0 0 0 -3-2.999zm-17.746-8.189c2.268-2.778 6.575-5.361 8.722-2.731 1.83 2.241.932 7.156-1.931 10.92h-9.791c-.043-.253-.1-.5-.163-.746a13.979 13.979 0 0 1 3.163-7.443zm-13.93 1.31a2.127 2.127 0 0 1 1.731-.78c1.512 0 3.37 1.13 4.848 2.948a11.389 11.389 0 0 1 2.175 4.161c-.007.185-.008.368 0 .55h-8.185c-1.431-2.611-1.693-5.496-.569-6.879zm28.676 35.879a1 1 0 0 1 -1 1h-34a1 1 0 0 1 -1-1v-19h12v13a1 1 0 0 0 1.707.707l4.293-4.293 4.293 4.293a1 1 0 0 0 1.707-.707v-13h12zm-22-19h8v10.584l-3.293-3.293a1 1 0 0 0 -1.414 0l-3.293 3.293zm26-3a1 1 0 0 1 -1 1h-42a1 1 0 0 1 -1-1v-4a1 1 0 0 1 1-1h42a1 1 0 0 1 1 1z" fill="#151a6a"/></svg>